STARTFONT 2.1
FONT -Linotype-New Century Schoolbook-Bold-R-Normal--14-140-72-72-P-84-ISO8859-1
SIZE 14 72 72
FONTBOUNDINGBOX 18 18 -4 -3

STARTPROPERTIES 22
FONTNAME_REGISTRY "-"
FOUNDRY "Linotype"
FAMILY_NAME "New Century Schoolbook"
WEIGHT_NAME "Bold"
SLANT "R"
SETWIDTH_NAME "Normal"
ADD_STYLE_NAME ""
PIXEL_SIZE 14
POINT_SIZE 140
RESOLUTION_X 72
RESOLUTION_Y 72
SPACING "P"
CHARSET_REGISTRY "ISO8859"
CHARSET_ENCODING "1"
FULL_NAME "NewCenturySchlbk-Bold"
AVERAGE_WIDTH 84
WEIGHT 10
X_HEIGHT 7
QUAD_WIDTH 8
DEFAULT_CHAR 32
FONT_DESCENT 3
FONT_ASCENT 13
ENDPROPERTIES

CHARS 190

STARTCHAR space
ENCODING 32
SWIDTH 287 0
DWIDTH 4 0
BBX 1 1 0 0
BITMAP
00
ENDCHAR

STARTCHAR exclam
ENCODING 33
SWIDTH 296 0
DWIDTH 4 0
BBX 2 11 1 0
BITMAP
C0
C0
C0
C0
C0
C0
C0
C0
00
C0
C0
ENDCHAR

STARTCHAR quotedbl
ENCODING 34
SWIDTH 333 0
DWIDTH 5 0
BBX 4 5 0 6
BITMAP
90
90
90
90
90
ENDCHAR

STARTCHAR numbersign
ENCODING 35
SWIDTH 574 0
DWIDTH 8 0
BBX 7 11 1 0
BITMAP
24
24
24
24
FE
48
FE
48
48
48
48
ENDCHAR

STARTCHAR dollar
ENCODING 36
SWIDTH 574 0
DWIDTH 8 0
BBX 7 14 1 -2
BITMAP
10
7E
96
90
D0
F0
7C
1E
D6
D2
92
7C
10
10
ENDCHAR

STARTCHAR percent
ENCODING 37
SWIDTH 833 0
DWIDTH 12 0
BBX 12 11 0 0
BITMAP
3840
6780
C480
C500
C500
CA60
74D0
0590
0990
09A0
10C0
ENDCHAR

STARTCHAR ampersand
ENCODING 38
SWIDTH 852 0
DWIDTH 12 0
BBX 10 11 1 0
BITMAP
1C00
3200
3200
3400
3FC0
5980
5D00
CD00
CE00
E740
7B80
ENDCHAR

STARTCHAR quoteright
ENCODING 39
SWIDTH 241 0
DWIDTH 3 0
BBX 2 5 1 6
BITMAP
C0
C0
C0
40
80
ENDCHAR

STARTCHAR parenleft
ENCODING 40
SWIDTH 389 0
DWIDTH 5 0
BBX 4 13 1 -2
BITMAP
10
20
60
40
C0
C0
C0
C0
C0
40
60
20
10
ENDCHAR

STARTCHAR parenright
ENCODING 41
SWIDTH 389 0
DWIDTH 5 0
BBX 4 13 1 -2
BITMAP
80
40
60
20
30
30
30
30
30
20
60
40
80
ENDCHAR

STARTCHAR asterisk
ENCODING 42
SWIDTH 500 0
DWIDTH 7 0
BBX 6 6 1 4
BITMAP
20
AC
70
78
AC
20
ENDCHAR

STARTCHAR plus
ENCODING 43
SWIDTH 606 0
DWIDTH 8 0
BBX 7 7 1 0
BITMAP
10
10
10
FE
10
10
10
ENDCHAR

STARTCHAR comma
ENCODING 44
SWIDTH 278 0
DWIDTH 4 0
BBX 2 6 1 -3
BITMAP
C0
C0
C0
40
80
80
ENDCHAR

STARTCHAR minus
ENCODING 45
SWIDTH 606 0
DWIDTH 8 0
BBX 7 1 1 3
BITMAP
FE
ENDCHAR

STARTCHAR period
ENCODING 46
SWIDTH 278 0
DWIDTH 4 0
BBX 2 2 1 0
BITMAP
C0
C0
ENDCHAR

STARTCHAR slash
ENCODING 47
SWIDTH 278 0
DWIDTH 4 0
BBX 5 11 0 0
BITMAP
18
10
10
20
20
20
40
40
40
C0
80
ENDCHAR

STARTCHAR zero
ENCODING 48
SWIDTH 574 0
DWIDTH 8 0
BBX 7 11 1 0
BITMAP
38
6C
44
C6
C6
C6
C6
C6
44
6C
38
ENDCHAR

STARTCHAR one
ENCODING 49
SWIDTH 574 0
DWIDTH 8 0
BBX 7 11 0 0
BITMAP
08
78
18
18
18
18
18
18
18
18
7E
ENDCHAR

STARTCHAR two
ENCODING 50
SWIDTH 574 0
DWIDTH 8 0
BBX 6 11 1 0
BITMAP
78
8C
8C
CC
CC
18
30
24
44
FC
FC
ENDCHAR

STARTCHAR three
ENCODING 51
SWIDTH 574 0
DWIDTH 8 0
BBX 7 11 0 0
BITMAP
7C
C6
C6
C6
04
3C
06
C6
C6
8C
78
ENDCHAR

STARTCHAR four
ENCODING 52
SWIDTH 574 0
DWIDTH 8 0
BBX 7 11 0 0
BITMAP
04
0C
1C
3C
2C
4C
8C
FE
0C
0C
1E
ENDCHAR

STARTCHAR five
ENCODING 53
SWIDTH 574 0
DWIDTH 8 0
BBX 7 11 0 0
BITMAP
FE
FC
80
80
F8
8C
06
C6
C6
8C
78
ENDCHAR

STARTCHAR six
ENCODING 54
SWIDTH 574 0
DWIDTH 8 0
BBX 7 11 1 0
BITMAP
3E
66
40
C0
FC
C6
C6
C6
C6
6C
38
ENDCHAR

STARTCHAR seven
ENCODING 55
SWIDTH 574 0
DWIDTH 8 0
BBX 6 11 1 0
BITMAP
FC
FC
88
88
08
10
10
30
30
30
30
ENDCHAR

STARTCHAR eight
ENCODING 56
SWIDTH 574 0
DWIDTH 8 0
BBX 6 11 1 0
BITMAP
78
84
84
C4
F8
78
8C
84
84
CC
78
ENDCHAR

STARTCHAR nine
ENCODING 57
SWIDTH 574 0
DWIDTH 8 0
BBX 7 11 0 0
BITMAP
38
4C
C6
C6
C6
C6
7E
06
04
CC
F8
ENDCHAR

STARTCHAR colon
ENCODING 58
SWIDTH 278 0
DWIDTH 4 0
BBX 2 7 1 0
BITMAP
C0
C0
00
00
00
C0
C0
ENDCHAR

STARTCHAR semicolon
ENCODING 59
SWIDTH 278 0
DWIDTH 4 0
BBX 2 10 1 -3
BITMAP
C0
C0
00
00
C0
C0
C0
40
80
80
ENDCHAR

STARTCHAR less
ENCODING 60
SWIDTH 606 0
DWIDTH 8 0
BBX 7 7 1 0
BITMAP
02
0C
30
C0
30
0C
02
ENDCHAR

STARTCHAR equal
ENCODING 61
SWIDTH 606 0
DWIDTH 8 0
BBX 7 5 1 1
BITMAP
FE
00
00
00
FE
ENDCHAR

STARTCHAR greater
ENCODING 62
SWIDTH 606 0
DWIDTH 8 0
BBX 7 7 1 0
BITMAP
80
60
18
06
18
60
80
ENDCHAR

STARTCHAR question
ENCODING 63
SWIDTH 500 0
DWIDTH 7 0
BBX 6 11 1 0
BITMAP
78
8C
CC
CC
18
10
20
20
00
30
30
ENDCHAR

STARTCHAR at
ENCODING 64
SWIDTH 747 0
DWIDTH 10 0
BBX 10 11 0 0
BITMAP
1E00
2100
4F80
9340
A340
A240
A240
A680
5F40
2080
1F00
ENDCHAR

STARTCHAR A
ENCODING 65
SWIDTH 759 0
DWIDTH 11 0
BBX 11 11 0 0
BITMAP
0400
0400
0E00
0E00
1300
1300
3300
3F80
6180
61C0
F3E0
ENDCHAR

STARTCHAR B
ENCODING 66
SWIDTH 778 0
DWIDTH 11 0
BBX 9 11 1 0
BITMAP
FF00
6380
6180
6180
6300
7C00
6300
6180
6180
6380
FF00
ENDCHAR

STARTCHAR C
ENCODING 67
SWIDTH 778 0
DWIDTH 11 0
BBX 9 11 1 0
BITMAP
1F80
2180
4080
C080
C000
C000
C000
C080
4180
2300
1E00
ENDCHAR

STARTCHAR D
ENCODING 68
SWIDTH 833 0
DWIDTH 12 0
BBX 10 11 1 0
BITMAP
FE00
6300
6180
60C0
60C0
60C0
60C0
60C0
6180
6300
FE00
ENDCHAR

STARTCHAR E
ENCODING 69
SWIDTH 759 0
DWIDTH 11 0
BBX 9 11 1 0
BITMAP
FF80
6180
6080
6480
6400
7C00
6400
6480
6080
6180
FF80
ENDCHAR

STARTCHAR F
ENCODING 70
SWIDTH 722 0
DWIDTH 10 0
BBX 8 11 1 0
BITMAP
FF
63
61
65
64
7C
64
64
60
60
F8
ENDCHAR

STARTCHAR G
ENCODING 71
SWIDTH 833 0
DWIDTH 12 0
BBX 10 11 1 0
BITMAP
1F80
3380
6180
C080
C080
C000
C3C0
C180
C180
6380
3E80
ENDCHAR

STARTCHAR H
ENCODING 72
SWIDTH 870 0
DWIDTH 12 0
BBX 10 11 1 0
BITMAP
F3C0
6180
6180
6180
6180
7F80
6180
6180
6180
6180
F3C0
ENDCHAR

STARTCHAR I
ENCODING 73
SWIDTH 444 0
DWIDTH 6 0
BBX 4 11 1 0
BITMAP
F0
60
60
60
60
60
60
60
60
60
F0
ENDCHAR

STARTCHAR J
ENCODING 74
SWIDTH 648 0
DWIDTH 9 0
BBX 8 11 0 0
BITMAP
0F
06
06
06
06
06
C6
C6
C6
8C
78
ENDCHAR

STARTCHAR K
ENCODING 75
SWIDTH 815 0
DWIDTH 11 0
BBX 9 11 1 0
BITMAP
F780
6300
6200
6400
6C00
7C00
7E00
6600
6300
6300
F780
ENDCHAR

STARTCHAR L
ENCODING 76
SWIDTH 722 0
DWIDTH 10 0
BBX 8 11 1 0
BITMAP
F8
60
60
60
60
60
60
61
61
63
FF
ENDCHAR

STARTCHAR M
ENCODING 77
SWIDTH 981 0
DWIDTH 14 0
BBX 13 11 0 0
BITMAP
7878
3870
2CB0
2CB0
2CB0
26B0
2730
2730
2330
2230
FA78
ENDCHAR

STARTCHAR N
ENCODING 78
SWIDTH 833 0
DWIDTH 12 0
BBX 12 11 0 0
BITMAP
61F0
3040
3840
3C40
2E40
2740
23C0
21C0
20C0
2040
F840
ENDCHAR

STARTCHAR O
ENCODING 79
SWIDTH 833 0
DWIDTH 12 0
BBX 10 11 1 0
BITMAP
1E00
2100
6180
C0C0
C0C0
C0C0
C0C0
C0C0
6180
2100
1E00
ENDCHAR

STARTCHAR P
ENCODING 80
SWIDTH 759 0
DWIDTH 11 0
BBX 9 11 1 0
BITMAP
FF00
6380
6180
6180
6380
7E00
6000
6000
6000
6000
F800
ENDCHAR

STARTCHAR Q
ENCODING 81
SWIDTH 833 0
DWIDTH 12 0
BBX 10 14 1 -3
BITMAP
1E00
2100
4080
C0C0
C0C0
C0C0
DEC0
E3C0
63C0
2380
1F00
0340
0340
0180
ENDCHAR

STARTCHAR R
ENCODING 82
SWIDTH 815 0
DWIDTH 11 0
BBX 10 11 1 0
BITMAP
FF00
6380
6180
6180
6300
7E00
6200
6300
6340
6340
F980
ENDCHAR

STARTCHAR S
ENCODING 83
SWIDTH 667 0
DWIDTH 9 0
BBX 7 11 1 0
BITMAP
7A
8E
86
82
F0
7C
3E
86
C2
E2
BC
ENDCHAR

STARTCHAR T
ENCODING 84
SWIDTH 722 0
DWIDTH 10 0
BBX 10 11 0 0
BITMAP
FFC0
CCC0
8C40
8C40
0C00
0C00
0C00
0C00
0C00
0C00
3F00
ENDCHAR

STARTCHAR U
ENCODING 85
SWIDTH 833 0
DWIDTH 12 0
BBX 11 11 0 0
BITMAP
F3E0
6080
6080
6080
6080
6080
6080
6080
6080
7100
3E00
ENDCHAR

STARTCHAR V
ENCODING 86
SWIDTH 759 0
DWIDTH 11 0
BBX 11 11 0 0
BITMAP
F9E0
30C0
3080
3880
1980
1900
0D00
0E00
0600
0600
0400
ENDCHAR

STARTCHAR W
ENCODING 87
SWIDTH 981 0
DWIDTH 14 0
BBX 14 11 0 0
BITMAP
F7BC
7318
3318
3390
3390
1BB0
1DE0
1CE0
0CC0
08C0
08C0
ENDCHAR

STARTCHAR X
ENCODING 88
SWIDTH 722 0
DWIDTH 10 0
BBX 10 11 0 0
BITMAP
FBC0
7180
3100
3A00
1C00
0C00
0E00
1700
2300
6380
F7C0
ENDCHAR

STARTCHAR Y
ENCODING 89
SWIDTH 722 0
DWIDTH 11 0
BBX 10 11 0 0
BITMAP
FBC0
6080
3100
1A00
0C00
0C00
0C00
0C00
0C00
0C00
3F00
ENDCHAR

STARTCHAR Z
ENCODING 90
SWIDTH 667 0
DWIDTH 9 0
BBX 8 11 1 0
BITMAP
FF
C6
8E
8C
1C
18
38
31
71
63
FF
ENDCHAR

STARTCHAR bracketleft
ENCODING 91
SWIDTH 389 0
DWIDTH 5 0
BBX 4 13 1 -2
BITMAP
F0
C0
C0
C0
C0
C0
C0
C0
C0
C0
C0
C0
F0
ENDCHAR

STARTCHAR backslash
ENCODING 92
SWIDTH 606 0
DWIDTH 8 0
BBX 7 11 1 0
BITMAP
C0
E0
60
70
30
38
18
1C
0C
0E
06
ENDCHAR

STARTCHAR bracketright
ENCODING 93
SWIDTH 389 0
DWIDTH 5 0
BBX 4 13 0 -2
BITMAP
F0
30
30
30
30
30
30
30
30
30
30
30
F0
ENDCHAR

STARTCHAR asciicircum
ENCODING 94
SWIDTH 606 0
DWIDTH 8 0
BBX 7 6 1 5
BITMAP
10
38
28
6C
44
C6
ENDCHAR

STARTCHAR underscore
ENCODING 95
SWIDTH 500 0
DWIDTH 7 0
BBX 7 2 0 -2
BITMAP
FE
FE
ENDCHAR

STARTCHAR quoteleft
ENCODING 96
SWIDTH 241 0
DWIDTH 3 0
BBX 2 5 1 6
BITMAP
40
80
C0
C0
C0
ENDCHAR

STARTCHAR a
ENCODING 97
SWIDTH 611 0
DWIDTH 9 0
BBX 7 7 1 0
BITMAP
78
CC
0C
7C
CC
CC
F6
ENDCHAR

STARTCHAR b
ENCODING 98
SWIDTH 648 0
DWIDTH 9 0
BBX 8 11 0 0
BITMAP
E0
60
60
60
6E
73
63
63
63
62
5C
ENDCHAR

STARTCHAR c
ENCODING 99
SWIDTH 556 0
DWIDTH 8 0
BBX 6 7 1 0
BITMAP
3C
4C
C0
C0
C4
E4
78
ENDCHAR

STARTCHAR d
ENCODING 100
SWIDTH 667 0
DWIDTH 9 0
BBX 8 11 1 0
BITMAP
0E
06
06
06
7E
6E
C6
C6
C6
CE
7F
ENDCHAR

STARTCHAR e
ENCODING 101
SWIDTH 574 0
DWIDTH 8 0
BBX 7 7 1 0
BITMAP
3C
46
FE
C0
C2
66
3C
ENDCHAR

STARTCHAR f
ENCODING 102
SWIDTH 389 0
DWIDTH 5 0
BBX 6 11 0 0
BITMAP
3C
6C
60
60
F8
60
60
60
60
60
F0
ENDCHAR

STARTCHAR g
ENCODING 103
SWIDTH 611 0
DWIDTH 9 0
BBX 7 10 1 -3
BITMAP
7E
C8
CC
CC
F8
C0
FC
FE
82
FC
ENDCHAR

STARTCHAR h
ENCODING 104
SWIDTH 685 0
DWIDTH 10 0
BBX 9 11 0 0
BITMAP
E000
6000
6000
6000
6E00
7300
6300
6300
6300
6300
F780
ENDCHAR

STARTCHAR i
ENCODING 105
SWIDTH 370 0
DWIDTH 5 0
BBX 4 11 1 0
BITMAP
60
60
00
00
E0
60
60
60
60
60
F0
ENDCHAR

STARTCHAR j
ENCODING 106
SWIDTH 352 0
DWIDTH 5 0
BBX 5 14 0 -3
BITMAP
18
18
00
00
38
18
18
18
18
18
18
18
D8
F0
ENDCHAR

STARTCHAR k
ENCODING 107
SWIDTH 667 0
DWIDTH 9 0
BBX 9 11 0 0
BITMAP
E000
6000
6000
6000
6F00
6400
6800
7C00
6E00
6300
F780
ENDCHAR

STARTCHAR l
ENCODING 108
SWIDTH 352 0
DWIDTH 5 0
BBX 4 11 0 0
BITMAP
E0
60
60
60
60
60
60
60
60
60
F0
ENDCHAR

STARTCHAR m
ENCODING 109
SWIDTH 963 0
DWIDTH 13 0
BBX 12 7 1 0
BITMAP
FFC0
6660
6660
6660
6660
6660
F6F0
ENDCHAR

STARTCHAR n
ENCODING 110
SWIDTH 685 0
DWIDTH 10 0
BBX 9 7 0 0
BITMAP
EE00
7300
6300
6300
6300
6300
F780
ENDCHAR

STARTCHAR o
ENCODING 111
SWIDTH 611 0
DWIDTH 9 0
BBX 7 7 1 0
BITMAP
38
44
C6
C6
C6
44
38
ENDCHAR

STARTCHAR p
ENCODING 112
SWIDTH 667 0
DWIDTH 9 0
BBX 8 10 1 -3
BITMAP
FE
63
63
63
63
63
7E
60
60
F0
ENDCHAR

STARTCHAR q
ENCODING 113
SWIDTH 648 0
DWIDTH 9 0
BBX 8 10 1 -3
BITMAP
3A
46
C6
C6
C6
CE
76
06
06
0F
ENDCHAR

STARTCHAR r
ENCODING 114
SWIDTH 519 0
DWIDTH 7 0
BBX 7 7 0 0
BITMAP
EE
76
60
60
60
60
F0
ENDCHAR

STARTCHAR s
ENCODING 115
SWIDTH 500 0
DWIDTH 7 0
BBX 6 7 1 0
BITMAP
7C
8C
E0
78
1C
C4
F8
ENDCHAR

STARTCHAR t
ENCODING 116
SWIDTH 426 0
DWIDTH 6 0
BBX 5 10 1 0
BITMAP
20
20
60
F8
60
60
60
68
68
70
ENDCHAR

STARTCHAR u
ENCODING 117
SWIDTH 685 0
DWIDTH 10 0
BBX 9 7 0 0
BITMAP
E700
6300
6300
6300
6300
6700
3B80
ENDCHAR

STARTCHAR v
ENCODING 118
SWIDTH 611 0
DWIDTH 9 0
BBX 8 7 0 0
BITMAP
F7
62
72
34
3C
18
18
ENDCHAR

STARTCHAR w
ENCODING 119
SWIDTH 889 0
DWIDTH 12 0
BBX 12 7 0 0
BITMAP
FF70
6620
7760
3740
3BC0
1980
1980
ENDCHAR

STARTCHAR x
ENCODING 120
SWIDTH 611 0
DWIDTH 9 0
BBX 8 7 0 0
BITMAP
F7
62
34
18
2C
46
EF
ENDCHAR

STARTCHAR y
ENCODING 121
SWIDTH 611 0
DWIDTH 9 0
BBX 8 10 0 -3
BITMAP
F7
62
32
36
1C
1C
08
08
D0
E0
ENDCHAR

STARTCHAR z
ENCODING 122
SWIDTH 537 0
DWIDTH 8 0
BBX 6 7 1 0
BITMAP
FC
8C
98
30
64
C4
FC
ENDCHAR

STARTCHAR braceleft
ENCODING 123
SWIDTH 389 0
DWIDTH 5 0
BBX 4 13 1 -2
BITMAP
30
60
60
60
60
60
C0
60
60
60
60
60
30
ENDCHAR

STARTCHAR bar
ENCODING 124
SWIDTH 606 0
DWIDTH 8 0
BBX 2 11 3 0
BITMAP
C0
C0
C0
C0
C0
C0
C0
C0
C0
C0
C0
ENDCHAR

STARTCHAR braceright
ENCODING 125
SWIDTH 389 0
DWIDTH 5 0
BBX 4 13 0 -2
BITMAP
C0
60
60
60
60
60
30
60
60
60
60
60
C0
ENDCHAR

STARTCHAR asciitilde
ENCODING 126
SWIDTH 606 0
DWIDTH 8 0
BBX 7 3 1 2
BITMAP
72
FE
9C
ENDCHAR

STARTCHAR exclamdown
ENCODING 161
SWIDTH 296 0
DWIDTH 4 0
BBX 2 10 1 -3
BITMAP
C0
C0
00
C0
C0
C0
C0
C0
C0
C0
ENDCHAR

STARTCHAR cent
ENCODING 162
SWIDTH 574 0
DWIDTH 8 0
BBX 6 9 1 -1
BITMAP
04
38
4C
DC
D0
F4
64
38
40
ENDCHAR

STARTCHAR sterling
ENCODING 163
SWIDTH 574 0
DWIDTH 8 0
BBX 7 11 1 0
BITMAP
3C
62
66
66
60
FC
30
30
F0
A6
FC
ENDCHAR

STARTCHAR currency
ENCODING 164
SWIDTH 574 0
DWIDTH 8 0
BBX 7 7 1 1
BITMAP
FA
7E
C6
C6
C6
FC
BE
ENDCHAR

STARTCHAR yen
ENCODING 165
SWIDTH 574 0
DWIDTH 10 0
BBX 9 11 1 0
BITMAP
FB80
6100
3200
1E00
0C00
3E00
0C00
3E00
0C00
0C00
3E00
ENDCHAR

STARTCHAR brokenbar
ENCODING 166
SWIDTH 606 0
DWIDTH 8 0
BBX 2 11 3 0
BITMAP
C0
C0
C0
C0
C0
00
C0
C0
C0
C0
C0
ENDCHAR

STARTCHAR section
ENCODING 167
SWIDTH 500 0
DWIDTH 7 0
BBX 6 12 1 -1
BITMAP
30
48
48
60
F8
8C
C4
7C
18
48
48
30
ENDCHAR

STARTCHAR dieresis
ENCODING 168
SWIDTH 333 0
DWIDTH 5 0
BBX 5 2 0 9
BITMAP
D8
D8
ENDCHAR

STARTCHAR copyright
ENCODING 169
SWIDTH 747 0
DWIDTH 10 0
BBX 10 11 0 0
BITMAP
1E00
2100
4080
9C40
B240
B040
B040
B240
5C80
2100
1E00
ENDCHAR

STARTCHAR ordfeminine
ENCODING 170
SWIDTH 367 0
DWIDTH 5 0
BBX 5 7 0 4
BITMAP
F0
10
70
90
F8
00
F0
ENDCHAR

STARTCHAR guillemotleft
ENCODING 171
SWIDTH 500 0
DWIDTH 7 0
BBX 6 4 0 1
BITMAP
24
D8
48
24
ENDCHAR

STARTCHAR logicalnot
ENCODING 172
SWIDTH 606 0
DWIDTH 8 0
BBX 6 3 1 0
BITMAP
FC
04
04
ENDCHAR

STARTCHAR hyphen
ENCODING 173
SWIDTH 333 0
DWIDTH 5 0
BBX 3 2 1 2
BITMAP
E0
E0
ENDCHAR

STARTCHAR registered
ENCODING 174
SWIDTH 747 0
DWIDTH 10 0
BBX 10 11 0 0
BITMAP
1E00
2100
4080
BE40
9B40
9B40
9E40
9B40
7B80
2100
1E00
ENDCHAR

STARTCHAR macron
ENCODING 175
SWIDTH 333 0
DWIDTH 5 0
BBX 5 2 0 8
BITMAP
F8
F8
ENDCHAR

STARTCHAR degree
ENCODING 176
SWIDTH 400 0
DWIDTH 8 0
BBX 4 5 2 6
BITMAP
60
90
90
90
60
ENDCHAR

STARTCHAR plusminus
ENCODING 177
SWIDTH 606 0
DWIDTH 8 0
BBX 7 10 1 0
BITMAP
10
10
10
FE
10
10
10
10
00
FE
ENDCHAR

STARTCHAR twosuperior
ENCODING 178
SWIDTH 344 0
DWIDTH 5 0
BBX 3 6 -4 5
BITMAP
E0
A0
20
40
C0
E0
ENDCHAR

STARTCHAR threesuperior
ENCODING 179
SWIDTH 344 0
DWIDTH 5 0
BBX 4 6 -4 5
BITMAP
F0
10
70
10
90
60
ENDCHAR

STARTCHAR acute
ENCODING 180
SWIDTH 333 0
DWIDTH 5 0
BBX 3 3 1 8
BITMAP
20
60
80
ENDCHAR

STARTCHAR mu
ENCODING 181
SWIDTH 685 0
DWIDTH 8 0
BBX 6 10 1 -3
BITMAP
88
88
88
88
88
88
FC
80
80
80
ENDCHAR

STARTCHAR paragraph
ENCODING 182
SWIDTH 747 0
DWIDTH 10 0
BBX 8 13 1 -2
BITMAP
7F
F6
F6
F6
F6
76
36
36
36
36
36
36
7F
ENDCHAR

STARTCHAR periodcentered
ENCODING 183
SWIDTH 278 0
DWIDTH 7 0
BBX 2 2 3 5
BITMAP
C0
C0
ENDCHAR

STARTCHAR cedilla
ENCODING 184
SWIDTH 333 0
DWIDTH 5 0
BBX 3 3 0 -3
BITMAP
40
20
E0
ENDCHAR

STARTCHAR onesuperior
ENCODING 185
SWIDTH 344 0
DWIDTH 4 0
BBX 3 6 -4 5
BITMAP
40
C0
40
40
40
E0
ENDCHAR

STARTCHAR ordmasculine
ENCODING 186
SWIDTH 367 0
DWIDTH 5 0
BBX 4 6 1 5
BITMAP
60
90
90
60
00
F0
ENDCHAR

STARTCHAR guillemotright
ENCODING 187
SWIDTH 500 0
DWIDTH 7 0
BBX 6 4 1 1
BITMAP
90
48
6C
90
ENDCHAR

STARTCHAR onequarter
ENCODING 188
SWIDTH 861 0
DWIDTH 11 0
BBX 10 11 0 0
BITMAP
4100
C200
4200
4400
4C00
E880
1980
1180
2280
23C0
4080
ENDCHAR

STARTCHAR onehalf
ENCODING 189
SWIDTH 861 0
DWIDTH 11 0
BBX 10 11 0 0
BITMAP
4100
C200
4200
4400
4C00
E9C0
1940
1040
2080
2180
41C0
ENDCHAR

STARTCHAR threequarters
ENCODING 190
SWIDTH 861 0
DWIDTH 12 0
BBX 11 11 0 0
BITMAP
F080
1100
7100
1200
9600
6440
0CC0
08C0
1140
11E0
2040
ENDCHAR

STARTCHAR questiondown
ENCODING 191
SWIDTH 500 0
DWIDTH 7 0
BBX 6 11 0 -3
BITMAP
30
30
00
10
10
20
60
CC
CC
C4
78
ENDCHAR

STARTCHAR Agrave
ENCODING 192
SWIDTH 759 0
DWIDTH 11 0
BBX 11 15 0 0
BITMAP
1000
1800
0400
0000
0400
0400
0E00
0E00
1300
1300
3300
3F80
6180
61C0
F3E0
ENDCHAR

STARTCHAR Aacute
ENCODING 193
SWIDTH 759 0
DWIDTH 11 0
BBX 11 15 0 0
BITMAP
0100
0300
0400
0000
0400
0400
0E00
0E00
1300
1300
3300
3F80
6180
61C0
F3E0
ENDCHAR

STARTCHAR Acircumflex
ENCODING 194
SWIDTH 759 0
DWIDTH 11 0
BBX 11 14 0 0
BITMAP
0E00
1B00
0000
0400
0400
0E00
0E00
1300
1300
3300
3F80
6180
61C0
F3E0
ENDCHAR

STARTCHAR Atilde
ENCODING 195
SWIDTH 759 0
DWIDTH 11 0
BBX 11 15 0 0
BITMAP
0D00
1F00
1600
0000
0400
0400
0E00
0E00
1300
1300
3300
3F80
6180
61C0
F3E0
ENDCHAR

STARTCHAR Adieresis
ENCODING 196
SWIDTH 759 0
DWIDTH 11 0
BBX 11 14 0 0
BITMAP
1B00
1B00
0000
0400
0400
0E00
0E00
1300
1300
3300
3F80
6180
61C0
F3E0
ENDCHAR

STARTCHAR Aring
ENCODING 197
SWIDTH 759 0
DWIDTH 11 0
BBX 11 15 0 0
BITMAP
0E00
0A00
0E00
0000
0400
0400
0E00
0E00
1300
1300
3300
3F80
6180
61C0
F3E0
ENDCHAR

STARTCHAR AE
ENCODING 198
SWIDTH 981 0
DWIDTH 14 0
BBX 12 11 1 0
BITMAP
7FF0
1E30
1610
3650
26C0
27C0
7EC0
6650
4610
C630
EFF0
ENDCHAR

STARTCHAR Ccedilla
ENCODING 199
SWIDTH 778 0
DWIDTH 11 0
BBX 9 14 1 -3
BITMAP
1F80
2180
4080
C080
C000
C000
C000
C080
4180
2300
1E00
0800
0400
1C00
ENDCHAR

STARTCHAR Egrave
ENCODING 200
SWIDTH 759 0
DWIDTH 11 0
BBX 9 15 1 0
BITMAP
1000
1800
0400
0000
FF80
6180
6080
6480
6400
7C00
6400
6480
6080
6180
FF80
ENDCHAR

STARTCHAR Eacute
ENCODING 201
SWIDTH 759 0
DWIDTH 11 0
BBX 9 15 1 0
BITMAP
0200
0600
0800
0000
FF80
6180
6080
6480
6400
7C00
6400
6480
6080
6180
FF80
ENDCHAR

STARTCHAR Ecircumflex
ENCODING 202
SWIDTH 759 0
DWIDTH 11 0
BBX 9 14 1 0
BITMAP
1C00
3600
0000
FF80
6180
6080
6480
6400
7C00
6400
6480
6080
6180
FF80
ENDCHAR

STARTCHAR Edieresis
ENCODING 203
SWIDTH 759 0
DWIDTH 11 0
BBX 9 14 1 0
BITMAP
3600
3600
0000
FF80
6180
6080
6480
6400
7C00
6400
6480
6080
6180
FF80
ENDCHAR

STARTCHAR Igrave
ENCODING 204
SWIDTH 444 0
DWIDTH 6 0
BBX 4 15 1 0
BITMAP
80
C0
20
00
F0
60
60
60
60
60
60
60
60
60
F0
ENDCHAR

STARTCHAR Iacute
ENCODING 205
SWIDTH 444 0
DWIDTH 6 0
BBX 4 15 1 0
BITMAP
10
30
40
00
F0
60
60
60
60
60
60
60
60
60
F0
ENDCHAR

STARTCHAR Icircumflex
ENCODING 206
SWIDTH 444 0
DWIDTH 6 0
BBX 5 14 1 0
BITMAP
70
D8
00
F0
60
60
60
60
60
60
60
60
60
F0
ENDCHAR

STARTCHAR Idieresis
ENCODING 207
SWIDTH 444 0
DWIDTH 6 0
BBX 5 14 2 0
BITMAP
D8
D8
00
78
30
30
30
30
30
30
30
30
30
78
ENDCHAR

STARTCHAR Eth
ENCODING 208
SWIDTH 833 0
DWIDTH 12 0
BBX 10 11 1 0
BITMAP
FF00
6180
6180
60C0
F8C0
60C0
60C0
60C0
6180
6380
FE00
ENDCHAR

STARTCHAR Ntilde
ENCODING 209
SWIDTH 833 0
DWIDTH 12 0
BBX 12 15 0 0
BITMAP
0D00
1F00
1600
0000
61F0
3040
3840
3C40
2E40
2740
23C0
21C0
20C0
2040
F840
ENDCHAR

STARTCHAR Ograve
ENCODING 210
SWIDTH 833 0
DWIDTH 12 0
BBX 10 15 1 0
BITMAP
1000
1800
0400
0000
1E00
2100
6180
C0C0
C0C0
C0C0
C0C0
C0C0
6180
2100
1E00
ENDCHAR

STARTCHAR Oacute
ENCODING 211
SWIDTH 833 0
DWIDTH 12 0
BBX 10 15 1 0
BITMAP
0200
0600
0800
0000
1E00
2100
6180
C0C0
C0C0
C0C0
C0C0
C0C0
6180
2100
1E00
ENDCHAR

STARTCHAR Ocircumflex
ENCODING 212
SWIDTH 833 0
DWIDTH 12 0
BBX 10 14 1 0
BITMAP
0E00
1B00
0000
1E00
2100
6180
C0C0
C0C0
C0C0
C0C0
C0C0
6180
2100
1E00
ENDCHAR

STARTCHAR Otilde
ENCODING 213
SWIDTH 833 0
DWIDTH 12 0
BBX 10 15 1 0
BITMAP
0D00
1F00
1600
0000
1E00
2100
6180
C0C0
C0C0
C0C0
C0C0
C0C0
6180
2100
1E00
ENDCHAR

STARTCHAR Odieresis
ENCODING 214
SWIDTH 833 0
DWIDTH 12 0
BBX 10 14 1 0
BITMAP
1B00
1B00
0000
1E00
2100
6180
C0C0
C0C0
C0C0
C0C0
C0C0
6180
2100
1E00
ENDCHAR

STARTCHAR multiply
ENCODING 215
SWIDTH 606 0
DWIDTH 8 0
BBX 6 6 1 1
BITMAP
84
48
30
30
48
84
ENDCHAR

STARTCHAR Oslash
ENCODING 216
SWIDTH 833 0
DWIDTH 12 0
BBX 10 11 1 0
BITMAP
1E40
21C0
6180
C3C0
C6C0
CCC0
D8C0
F0C0
6180
E100
9E00
ENDCHAR

STARTCHAR Ugrave
ENCODING 217
SWIDTH 833 0
DWIDTH 12 0
BBX 11 15 0 0
BITMAP
1000
1800
0400
0000
F3E0
6080
6080
6080
6080
6080
6080
6080
6080
7100
3E00
ENDCHAR

STARTCHAR Uacute
ENCODING 218
SWIDTH 833 0
DWIDTH 12 0
BBX 11 15 0 0
BITMAP
0100
0300
0400
0000
F3E0
6080
6080
6080
6080
6080
6080
6080
6080
7100
3E00
ENDCHAR

STARTCHAR Ucircumflex
ENCODING 219
SWIDTH 833 0
DWIDTH 12 0
BBX 11 14 0 0
BITMAP
0E00
1B00
0000
F3E0
6080
6080
6080
6080
6080
6080
6080
6080
7100
3E00
ENDCHAR

STARTCHAR Udieresis
ENCODING 220
SWIDTH 833 0
DWIDTH 12 0
BBX 11 14 0 0
BITMAP
1B00
1B00
0000
F3E0
6080
6080
6080
6080
6080
6080
6080
6080
7100
3E00
ENDCHAR

STARTCHAR Yacute
ENCODING 221
SWIDTH 722 0
DWIDTH 11 0
BBX 10 15 0 0
BITMAP
0200
0600
0800
0000
FBC0
6080
3100
1A00
0C00
0C00
0C00
0C00
0C00
0C00
3F00
ENDCHAR

STARTCHAR Thorn
ENCODING 222
SWIDTH 759 0
DWIDTH 11 0
BBX 9 11 1 0
BITMAP
F000
6000
7E00
6380
6180
6180
6380
7E00
6000
6000
F000
ENDCHAR

STARTCHAR germandbls
ENCODING 223
SWIDTH 611 0
DWIDTH 9 0
BBX 8 11 0 0
BITMAP
3E
63
63
63
64
62
63
63
63
63
EE
ENDCHAR

STARTCHAR agrave
ENCODING 224
SWIDTH 611 0
DWIDTH 9 0
BBX 7 11 1 0
BITMAP
40
60
10
00
78
CC
0C
7C
CC
CC
F6
ENDCHAR

STARTCHAR aacute
ENCODING 225
SWIDTH 611 0
DWIDTH 9 0
BBX 7 11 1 0
BITMAP
08
18
20
00
78
CC
0C
7C
CC
CC
F6
ENDCHAR

STARTCHAR acircumflex
ENCODING 226
SWIDTH 611 0
DWIDTH 9 0
BBX 7 10 1 0
BITMAP
38
6C
00
78
CC
0C
7C
CC
CC
F6
ENDCHAR

STARTCHAR atilde
ENCODING 227
SWIDTH 611 0
DWIDTH 9 0
BBX 7 11 1 0
BITMAP
34
7C
58
00
78
CC
0C
7C
CC
CC
F6
ENDCHAR

STARTCHAR adieresis
ENCODING 228
SWIDTH 611 0
DWIDTH 9 0
BBX 7 10 1 0
BITMAP
6C
6C
00
78
CC
0C
7C
CC
CC
F6
ENDCHAR

STARTCHAR aring
ENCODING 229
SWIDTH 611 0
DWIDTH 9 0
BBX 7 11 1 0
BITMAP
38
28
38
00
78
CC
0C
7C
CC
CC
F6
ENDCHAR

STARTCHAR ae
ENCODING 230
SWIDTH 870 0
DWIDTH 12 0
BBX 11 7 1 0
BITMAP
7BC0
CC60
3FE0
6C00
CC20
CE60
73C0
ENDCHAR

STARTCHAR ccedilla
ENCODING 231
SWIDTH 556 0
DWIDTH 8 0
BBX 6 10 1 -3
BITMAP
3C
4C
C0
C0
C4
E4
78
20
10
70
ENDCHAR

STARTCHAR egrave
ENCODING 232
SWIDTH 574 0
DWIDTH 8 0
BBX 7 11 1 0
BITMAP
40
60
10
00
3C
46
FE
C0
C2
66
3C
ENDCHAR

STARTCHAR eacute
ENCODING 233
SWIDTH 574 0
DWIDTH 8 0
BBX 7 11 1 0
BITMAP
04
0C
10
00
3C
46
FE
C0
C2
66
3C
ENDCHAR

STARTCHAR ecircumflex
ENCODING 234
SWIDTH 574 0
DWIDTH 8 0
BBX 7 10 1 0
BITMAP
38
6C
00
3C
46
FE
C0
C2
66
3C
ENDCHAR

STARTCHAR edieresis
ENCODING 235
SWIDTH 574 0
DWIDTH 8 0
BBX 7 10 1 0
BITMAP
6C
6C
00
3C
46
FE
C0
C2
66
3C
ENDCHAR

STARTCHAR igrave
ENCODING 236
SWIDTH 370 0
DWIDTH 5 0
BBX 4 11 1 0
BITMAP
80
C0
20
00
E0
60
60
60
60
60
F0
ENDCHAR

STARTCHAR iacute
ENCODING 237
SWIDTH 370 0
DWIDTH 5 0
BBX 4 11 1 0
BITMAP
10
30
40
00
E0
60
60
60
60
60
F0
ENDCHAR

STARTCHAR icircumflex
ENCODING 238
SWIDTH 370 0
DWIDTH 5 0
BBX 5 10 1 0
BITMAP
70
D8
00
E0
60
60
60
60
60
F0
ENDCHAR

STARTCHAR idieresis
ENCODING 239
SWIDTH 370 0
DWIDTH 5 0
BBX 5 10 1 0
BITMAP
D8
D8
00
E0
60
60
60
60
60
F0
ENDCHAR

STARTCHAR eth
ENCODING 240
SWIDTH 611 0
DWIDTH 9 0
BBX 7 12 1 0
BITMAP
48
30
30
58
0C
3E
46
C6
C6
C6
44
38
ENDCHAR

STARTCHAR ntilde
ENCODING 241
SWIDTH 685 0
DWIDTH 10 0
BBX 9 11 0 0
BITMAP
1A00
3E00
2C00
0000
EE00
7300
6300
6300
6300
6300
F780
ENDCHAR

STARTCHAR ograve
ENCODING 242
SWIDTH 611 0
DWIDTH 9 0
BBX 7 11 1 0
BITMAP
40
60
10
00
38
44
C6
C6
C6
44
38
ENDCHAR

STARTCHAR oacute
ENCODING 243
SWIDTH 611 0
DWIDTH 9 0
BBX 7 11 1 0
BITMAP
04
0C
10
00
38
44
C6
C6
C6
44
38
ENDCHAR

STARTCHAR ocircumflex
ENCODING 244
SWIDTH 611 0
DWIDTH 9 0
BBX 7 10 1 0
BITMAP
38
6C
00
38
44
C6
C6
C6
44
38
ENDCHAR

STARTCHAR otilde
ENCODING 245
SWIDTH 611 0
DWIDTH 9 0
BBX 7 11 1 0
BITMAP
34
7C
58
00
38
44
C6
C6
C6
44
38
ENDCHAR

STARTCHAR odieresis
ENCODING 246
SWIDTH 611 0
DWIDTH 9 0
BBX 7 10 1 0
BITMAP
6C
6C
00
38
44
C6
C6
C6
44
38
ENDCHAR

STARTCHAR divide
ENCODING 247
SWIDTH 606 0
DWIDTH 8 0
BBX 6 7 1 0
BITMAP
30
30
00
FC
00
30
30
ENDCHAR

STARTCHAR oslash
ENCODING 248
SWIDTH 611 0
DWIDTH 9 0
BBX 7 9 1 -1
BITMAP
02
3C
4C
CE
D6
E6
64
78
80
ENDCHAR

STARTCHAR ugrave
ENCODING 249
SWIDTH 685 0
DWIDTH 10 0
BBX 9 11 0 0
BITMAP
2000
3000
0800
0000
E700
6300
6300
6300
6300
6700
3B80
ENDCHAR

STARTCHAR uacute
ENCODING 250
SWIDTH 685 0
DWIDTH 10 0
BBX 9 11 0 0
BITMAP
0200
0600
0800
0000
E700
6300
6300
6300
6300
6700
3B80
ENDCHAR

STARTCHAR ucircumflex
ENCODING 251
SWIDTH 685 0
DWIDTH 10 0
BBX 9 10 0 0
BITMAP
1C00
3600
0000
E700
6300
6300
6300
6300
6700
3B80
ENDCHAR

STARTCHAR udieresis
ENCODING 252
SWIDTH 685 0
DWIDTH 10 0
BBX 9 10 0 0
BITMAP
3600
3600
0000
E700
6300
6300
6300
6300
6700
3B80
ENDCHAR

STARTCHAR yacute
ENCODING 253
SWIDTH 611 0
DWIDTH 9 0
BBX 8 14 0 -3
BITMAP
04
0C
10
00
F7
62
32
36
1C
1C
08
08
D0
E0
ENDCHAR

STARTCHAR thorn
ENCODING 254
SWIDTH 667 0
DWIDTH 9 0
BBX 8 14 1 -3
BITMAP
E0
60
60
60
7E
63
63
63
63
63
7E
60
60
F0
ENDCHAR

STARTCHAR ydieresis
ENCODING 255
SWIDTH 611 0
DWIDTH 9 0
BBX 8 13 0 -3
BITMAP
36
36
00
F7
62
32
36
1C
1C
08
08
D0
E0
ENDCHAR
ENDFONT
